<svg width="24" height="25" viewBox="0 0 24 25" fill="none" xmlns="http://www.w3.org/2000/svg">
<g id="icon">
<path id="Vector" d="M11.9193 21.4307L16.1231 10.3538H18.05L22.2538 21.4307H20.3269L19.3538 18.6115H14.8693L13.8654 21.4307H11.9193ZM15.4308 16.9961H18.7423L17.1269 12.4307H17.0462L15.4308 16.9961ZM4.63468 18.6615L3.33085 17.3576L7.9962 12.6923C7.41415 12.05 6.90486 11.3827 6.46833 10.6904C6.0318 9.99806 5.65135 9.27051 5.327 8.50769H7.2539C7.53467 9.06281 7.83146 9.5612 8.14428 10.0029C8.4571 10.4445 8.83594 10.9128 9.2808 11.4077C9.96285 10.6654 10.5279 9.90703 10.976 9.13266C11.4241 8.35831 11.7987 7.53461 12.1 6.66154H1.86548V4.81539H8.32698V2.96924H10.1731V4.81539H16.6346V6.66154H13.9462C13.6218 7.74871 13.1837 8.80735 12.6318 9.83749C12.0798 10.8676 11.3975 11.8359 10.5847 12.7423L12.7923 14.9999L12.1 16.8961L9.25005 14.0461L4.63468 18.6615Z" fill="#901D63"/>
</g>
</svg>
