<svg width="24" height="25" viewBox="0 0 24 25" fill="none" xmlns="http://www.w3.org/2000/svg">
<g id="icon">
<path id="Vector" d="M9.01382 17.7641L17.3641 12.4L9.01382 7.03597V17.7641ZM12 24.4C10.3226 24.4 8.75588 24.0859 7.2999 23.4576C5.8439 22.8294 4.57738 21.9767 3.50035 20.8997C2.42332 19.8226 1.57067 18.5561 0.942415 17.1001C0.314138 15.6441 0 14.0774 0 12.4C0 10.7226 0.314138 9.1559 0.942415 7.69992C1.57067 6.24392 2.42332 4.97741 3.50035 3.90037C4.57738 2.82334 5.8439 1.9707 7.2999 1.34244C8.75588 0.714162 10.3226 0.400024 12 0.400024C13.6774 0.400024 15.2441 0.714162 16.7001 1.34244C18.1561 1.9707 19.4226 2.82334 20.4996 3.90037C21.5767 4.97741 22.4293 6.24392 23.0576 7.69992C23.6859 9.1559 24 10.7226 24 12.4C24 14.0774 23.6859 15.6441 23.0576 17.1001C22.4293 18.5561 21.5767 19.8226 20.4996 20.8997C19.4226 21.9767 18.1561 22.8294 16.7001 23.4576C15.2441 24.0859 13.6774 24.4 12 24.4ZM12 20.9162C14.3963 20.9162 16.4147 20.0959 18.0553 18.4553C19.6959 16.8148 20.5161 14.7963 20.5161 12.4C20.5161 10.0037 19.6959 7.98528 18.0553 6.34472C16.4147 4.70417 14.3963 3.8839 12 3.8839C9.60369 3.8839 7.58525 4.70417 5.9447 6.34472C4.30415 7.98528 3.48387 10.0037 3.48387 12.4C3.48387 14.7963 4.30415 16.8148 5.9447 18.4553C7.58525 20.0959 9.60369 20.9162 12 20.9162Z" fill="#030303"/>
</g>
</svg>
