<svg width="24" height="25" viewBox="0 0 24 25" fill="none" xmlns="http://www.w3.org/2000/svg">
<g id="icon">
<path id="Vector" d="M19.4403 20.6999C17.5557 20.6999 15.6625 20.2618 13.7606 19.3855C11.8586 18.5092 10.1112 17.273 8.51828 15.6768C6.92532 14.0807 5.69071 12.3333 4.81442 10.4346C3.93814 8.53584 3.5 6.64418 3.5 4.75958C3.5 4.45683 3.6 4.20454 3.8 4.0027C4 3.80087 4.25 3.69995 4.55 3.69995H7.8115C8.06407 3.69995 8.28682 3.78233 8.47977 3.94708C8.67272 4.11183 8.79548 4.31535 8.84803 4.55765L9.4211 7.49993C9.46085 7.77301 9.45252 8.00763 9.3961 8.20378C9.3397 8.39993 9.23842 8.56467 9.09225 8.698L6.78265 10.9461C7.15445 11.6268 7.57913 12.2708 8.0567 12.8778C8.53427 13.4849 9.05125 14.0647 9.60765 14.6173C10.1564 15.166 10.7397 15.6756 11.3577 16.1461C11.9756 16.6166 12.6429 17.0544 13.3596 17.4596L15.6038 15.1961C15.7602 15.0333 15.9497 14.9192 16.1721 14.8538C16.3945 14.7884 16.6256 14.7724 16.8654 14.8057L19.6423 15.3711C19.8948 15.4378 20.1009 15.5666 20.2605 15.7576C20.4201 15.9487 20.5 16.1653 20.5 16.4077V19.6499C20.5 19.9499 20.399 20.1999 20.1972 20.3999C19.9954 20.5999 19.7431 20.6999 19.4403 20.6999ZM6.07305 9.52688L7.85768 7.81918C7.88973 7.79353 7.91056 7.75827 7.92018 7.7134C7.92979 7.66852 7.92819 7.62685 7.91538 7.5884L7.48075 5.35378C7.46793 5.30249 7.4455 5.26404 7.41345 5.2384C7.3814 5.21275 7.33973 5.19993 7.28845 5.19993H5.14997C5.11152 5.19993 5.07948 5.21275 5.05383 5.2384C5.02818 5.26404 5.01535 5.29609 5.01535 5.33455C5.06663 6.01789 5.17849 6.71212 5.35092 7.41725C5.52337 8.12239 5.76408 8.82559 6.07305 9.52688ZM14.773 18.1692C15.4359 18.4781 16.1272 18.7144 16.8471 18.8778C17.567 19.0413 18.2397 19.1384 18.8654 19.1692C18.9038 19.1692 18.9359 19.1563 18.9615 19.1307C18.9872 19.1051 19 19.073 19 19.0345V16.9307C19 16.8794 18.9872 16.8377 18.9615 16.8057C18.9359 16.7736 18.8974 16.7512 18.8461 16.7384L16.7461 16.3115C16.7077 16.2986 16.674 16.297 16.6452 16.3067C16.6163 16.3163 16.5859 16.3371 16.5538 16.3692L14.773 18.1692Z" fill="#901D63"/>
</g>
</svg>
