<svg width="112" height="112" viewBox="0 0 112 112" fill="none" xmlns="http://www.w3.org/2000/svg">
<g id="logo">
<rect width="112" height="112" rx="12" fill="url(#paint0_radial_235_4849)"/>
<path id="vector" fill-rule="evenodd" clip-rule="evenodd" d="M27.5267 34.8027C26.9738 35.9125 25.7325 36.4536 24.5713 36.0997C24.181 35.9814 23.7752 35.9154 23.3635 35.9154C22.5291 35.9154 21.4162 36.4166 21.4162 37.4199C21.4162 38.4709 22.6447 38.8761 23.4332 39.1393L24.5928 39.4972C27.0268 40.2374 28.9042 41.5027 28.9042 44.4159C28.9042 46.2067 28.4873 48.0451 27.0966 49.2627C25.7289 50.457 23.8972 50.9587 22.1348 50.9587C19.9413 50.9587 17.7935 50.2004 16.0129 48.9207C16.0006 48.9117 15.9962 48.8944 16.0037 48.8805L17.9382 45.1318C19.0747 46.159 20.4192 46.995 21.9727 46.995C23.039 46.995 24.1751 46.4456 24.1751 45.18C24.1751 43.867 22.3896 43.413 21.4162 43.1264C18.5645 42.2906 16.687 41.5269 16.687 38.0407C16.687 34.3873 19.2138 32 22.7141 32C24.4669 32 26.6094 32.567 28.1608 33.4657C28.1748 33.4735 28.1803 33.4915 28.1724 33.5067L27.5267 34.8027ZM33.9659 39.8076C33.9756 39.8076 33.9859 39.8026 33.9907 39.7941C34.9633 38.3244 36.1436 37.826 37.7847 37.826C40.984 37.826 42.2588 39.9033 42.2588 42.9117V47.8935C42.2588 49.3226 41.1343 50.4808 39.7467 50.4808H38.0697C38.053 50.4808 38.0394 50.4673 38.0394 50.45V44.5116C38.0394 43.3419 38.2251 41.288 36.138 41.288C34.4228 41.288 33.936 42.6013 33.936 44.1297V47.8935C33.936 49.3226 32.8111 50.4808 31.4243 50.4808H29.7466C29.7297 50.4808 29.7163 50.4673 29.7163 50.45V38.2623C29.7163 38.2455 29.7297 38.2316 29.7466 38.2316H33.9057C33.9224 38.2316 33.936 38.2455 33.936 38.2623V39.7768C33.936 39.7936 33.9492 39.8076 33.9659 39.8076ZM47.4185 44.3683C47.4185 45.9201 48.4155 47.1144 50.1311 47.1144C51.8464 47.1144 52.8433 45.9201 52.8433 44.3683C52.8433 42.8637 51.8464 41.5988 50.1311 41.5988C48.4155 41.5988 47.4185 42.8637 47.4185 44.3683ZM54.4115 50.4808H52.7346C52.7177 50.4808 52.7042 50.4668 52.7042 50.4496V49.151C52.7042 49.1338 52.6907 49.1198 52.6743 49.1198C52.6644 49.1198 52.6548 49.1252 52.6493 49.1338C51.905 50.342 50.4497 50.8868 49.0649 50.8868C45.5407 50.8868 43.0596 47.8545 43.0596 44.344C43.0596 40.8339 45.4944 37.8255 49.0182 37.8255C50.3592 37.8255 51.7666 38.3305 52.6516 39.3626C52.6704 39.384 52.7042 39.3712 52.7042 39.3424V38.2628C52.7042 38.2459 52.7177 38.2316 52.7346 38.2316H56.8937C56.9101 38.2316 56.924 38.2459 56.924 38.2628V47.8935C56.924 49.3226 55.7995 50.4808 54.4115 50.4808ZM62.295 44.3683C62.295 45.9201 63.2919 47.1144 65.0076 47.1144C66.7232 47.1144 67.7199 45.9201 67.7199 44.3683C67.7199 42.8637 66.7232 41.5988 65.0076 41.5988C63.2919 41.5988 62.295 42.8637 62.295 44.3683ZM62.4644 39.6168C62.4739 39.6168 62.4839 39.6114 62.4891 39.6027C63.2565 38.3941 64.6884 37.8255 66.0739 37.8255C69.6213 37.8255 72.0788 40.882 72.0788 44.392C72.0788 47.926 69.6444 50.8868 66.1202 50.8868C64.7557 50.8868 63.345 50.388 62.441 49.319C62.4385 49.3156 62.4338 49.3177 62.4338 49.3214V53.0594C62.4338 54.4885 61.3096 55.6466 59.922 55.6466H58.2144V38.2316H62.4338V39.5856C62.4338 39.6027 62.448 39.6168 62.4644 39.6168ZM76.9475 44.3683C76.9475 45.9201 77.9445 47.1144 79.6601 47.1144C81.3753 47.1144 82.3723 45.9201 82.3723 44.3683C82.3723 42.8637 81.3753 41.5988 79.6601 41.5988C77.9445 41.5988 76.9475 42.8637 76.9475 44.3683ZM77.1165 39.6168C77.1265 39.6168 77.136 39.6114 77.1415 39.6027C77.9089 38.3941 79.3408 37.8255 80.726 37.8255C84.2737 37.8255 86.7308 40.882 86.7308 44.392C86.7308 47.926 84.2968 50.8868 80.7726 50.8868C79.4313 50.8868 78.0445 50.4044 77.1388 49.3719C77.1201 49.3506 77.0862 49.3638 77.0862 49.3924V53.0594C77.0862 54.4885 75.962 55.6466 74.5745 55.6466H72.8967C72.8804 55.6466 72.8668 55.6327 72.8668 55.6158V38.2628C72.8668 38.2459 72.8804 38.2316 72.8967 38.2316H77.0562C77.0731 38.2316 77.0862 38.2459 77.0862 38.2628V39.5856C77.0862 39.6027 77.1001 39.6168 77.1165 39.6168ZM91.1392 44.041H88.7343L91.6207 32.5004C91.6246 32.4868 91.6362 32.477 91.6502 32.477H95.9699C95.9896 32.477 96.0038 32.496 95.9991 32.516L93.6102 42.0693C93.3196 43.2303 92.3031 44.041 91.1392 44.041ZM87.4642 48.1448C87.4622 46.6402 88.4572 45.3733 90.1725 45.37C91.8886 45.3672 92.8875 46.6311 92.8898 48.1354C92.8923 49.6876 91.8969 50.8827 90.182 50.886C88.4656 50.8888 87.467 49.6963 87.4642 48.1448ZM24.9966 59.8168V73.878H20.4456V59.8168H16.7069V55.8469H28.7352V59.8168H24.9966ZM28.4798 61.6105H32.6823V63.6193C33.1312 62.886 33.6809 62.324 34.3311 61.9332C34.9812 61.5427 35.7394 61.3477 36.6068 61.3477H36.9663C37.0975 61.3477 37.2486 61.3633 37.4192 61.3953V65.5323C36.8622 65.2454 36.258 65.1016 35.6082 65.1016C34.6328 65.1016 33.9013 65.4006 33.4138 65.9988C32.9259 66.5968 32.6823 67.4692 32.6823 68.6172V73.8778H28.4798V61.6105ZM38.3715 73.878H42.5742V61.61H38.3715V73.878ZM38.0925 56.8992C38.0925 56.5646 38.1542 56.2501 38.2785 55.9545C38.4021 55.6602 38.5719 55.4011 38.7892 55.1774C39.0053 54.9548 39.2572 54.7791 39.5434 54.6518C39.8304 54.5241 40.1357 54.4597 40.461 54.4597C40.7859 54.4597 41.0916 54.5241 41.3778 54.6518C41.6645 54.7791 41.9156 54.9548 42.1328 55.1774C42.3489 55.4011 42.5195 55.6602 42.6435 55.9545C42.7674 56.2501 42.8296 56.5646 42.8296 56.8992C42.8296 57.2341 42.7674 57.5494 42.6435 57.8438C42.5195 58.139 42.3489 58.398 42.1328 58.6214C41.9156 58.8442 41.6645 59.02 41.3778 59.1472C41.0916 59.2749 40.7859 59.3385 40.461 59.3385C40.1357 59.3385 39.8304 59.2749 39.5434 59.1472C39.2572 59.02 39.0053 58.8442 38.7892 58.6214C38.5719 58.398 38.4021 58.139 38.2785 57.8438C38.1542 57.5494 38.0925 57.2341 38.0925 56.8992ZM53.5561 67.78C53.5561 67.3975 53.4902 67.035 53.3592 66.6918C53.2273 66.3493 53.0375 66.05 52.7899 65.7951C52.5424 65.5406 52.2518 65.3373 51.9197 65.1854C51.5862 65.034 51.2261 64.9584 50.8395 64.9584C50.468 64.9584 50.12 65.0299 49.7951 65.174C49.4698 65.3168 49.1872 65.5167 48.9476 65.7712C48.7073 66.0266 48.5136 66.3255 48.3672 66.6684C48.2197 67.0116 48.146 67.3732 48.146 67.7563C48.146 68.1393 48.2158 68.4976 48.3553 68.832C48.4948 69.1671 48.6881 69.4585 48.9357 69.7053C49.1828 69.9525 49.473 70.1516 49.8063 70.3029C50.1388 70.4546 50.4915 70.5306 50.863 70.5306C51.2341 70.5306 51.5829 70.4587 51.9082 70.315C52.2326 70.1713 52.5153 69.9722 52.7552 69.717C52.9956 69.4621 53.1886 69.1671 53.336 68.832C53.4832 68.4976 53.5561 68.1471 53.5561 67.78ZM48.2624 80H44.0597V61.6105H48.2624V62.9731C49.1601 61.8096 50.3827 61.2274 51.9313 61.2274C52.7824 61.2274 53.5756 61.3994 54.311 61.7419C55.0462 62.0851 55.6847 62.5514 56.2268 63.1406C56.7681 63.7309 57.1899 64.4247 57.4925 65.2212C57.7938 66.0184 57.9452 66.8712 57.9452 67.78C57.9452 68.689 57.7938 69.534 57.4925 70.315C57.1899 71.0965 56.7721 71.782 56.2383 72.3716C55.7042 72.9616 55.0732 73.424 54.3457 73.7587C53.6183 74.093 52.8286 74.2604 51.9775 74.2604C50.4915 74.2604 49.253 73.7347 48.2624 72.6826V80Z" fill="#901D63"/>
</g>
<defs>
<radialGradient id="paint0_radial_235_4849" cx="0" cy="0" r="1" gradientUnits="userSpaceOnUse" gradientTransform="translate(56) rotate(90) scale(112)">
<stop stop-color="white"/>
<stop offset="1" stop-color="#F6E9EE"/>
</radialGradient>
</defs>
</svg>
