<svg width="64" height="65" viewBox="0 0 64 65" fill="none" xmlns="http://www.w3.org/2000/svg">
<g id="certificate logo">
<path id="Vector" d="M62.1399 24.7184H28.9983V57.4064H62.1399V24.7184Z" fill="white"/>
<path id="Vector_2" d="M32.9744 2.81433L32.9472 3.70393L32.312 3.76793C31.9664 3.79513 31.1224 3.86793 30.4512 3.92793C29.78 3.98793 28.8168 4.12153 28.32 4.21273C27.8232 4.30393 27.2944 4.41193 27.14 4.43913C26.8768 4.48473 26.5592 4.56633 25.7328 4.79353C25.5064 4.85673 25.0792 4.97513 24.78 5.06553C24.0176 5.27433 23.164 5.57433 23.0552 5.67433C22.9729 5.72298 22.8788 5.7479 22.7832 5.74633C22.6546 5.75785 22.5318 5.80525 22.4288 5.88313C22.3411 5.95122 22.2386 5.9978 22.1296 6.01913C22.0296 6.01913 21.3848 6.30953 20.0144 6.95433C18.916 7.48073 16.3016 9.12313 15.3392 9.89513C15.04 10.1399 14.6496 10.4399 14.4768 10.5575C13.6688 11.1295 11.0456 13.7895 9.92961 15.1599C9.07601 16.2127 6.87041 19.5711 6.85201 19.8351C6.85201 19.8711 6.61201 20.3791 6.32561 20.9695C5.61761 22.4095 5.0728 23.7927 5.1816 23.9015C5.2272 23.9471 5.56321 23.8015 6.01681 23.5295C6.43441 23.2839 6.79761 23.0847 6.83361 23.0847C6.86961 23.0847 7.18801 22.9663 7.56961 22.8215C9.03041 22.2671 10.3016 22.0407 11.8896 22.0495C12.5427 22.0512 13.1948 22.1028 13.84 22.2039C15.3648 22.4855 17.1264 23.1839 18.288 23.9639C18.96 24.4087 19.1416 24.4359 19.568 24.1455C19.904 23.9191 20.4032 23.6191 20.9656 23.3103C21.3744 23.0839 22.6088 22.6207 23.3712 22.4119C26.3576 21.5951 29.6912 22.0855 32.4912 23.7463C32.6573 23.8557 32.8175 23.9737 32.9712 24.0999C33.3344 24.4087 33.7248 24.4271 34.1056 24.1455C34.9408 23.5559 36.2936 22.9199 37.7096 22.4655C38.4176 22.2383 39.7248 22.0567 40.7496 22.0479C43.0824 22.0295 45.1792 22.6015 47.1312 23.7999L48.0664 24.3807L48.4472 24.2087C48.6898 24.0998 48.9235 23.9722 49.1464 23.8271C50.0816 23.1919 51.9968 22.4671 53.3584 22.2111C54.6288 21.9847 56.1904 21.9479 57.1072 22.1207C59.1408 22.5207 60.048 22.8559 61.9728 23.9607C62.0088 23.9791 62.0632 23.9431 62.0904 23.8703C62.136 23.7343 61.7456 22.6991 61.156 21.4463C60.9744 21.0743 60.7288 20.5391 60.6016 20.2663C60.4872 20.0178 60.3601 19.7754 60.2208 19.5399C60.1408 19.4135 59.9304 19.0679 59.7664 18.7687C59.5032 18.2887 58.9952 17.5071 58.224 16.3815C56.9256 14.4839 54.5016 11.9423 52.3776 10.2719C51.788 9.79993 50.1632 8.63833 49.8 8.42073C49.72 8.36633 49.4 8.18073 49.1008 7.99353C48.4472 7.60393 46.5232 6.61433 45.6968 6.25993C45.3704 6.11513 44.9888 5.93993 44.8528 5.86953C44.7226 5.80183 44.581 5.75871 44.4352 5.74233C44.3501 5.74112 44.267 5.71619 44.1952 5.67033C44.0864 5.57033 43.4872 5.36153 42.6064 5.11033C42.2344 5.00153 41.7624 4.85593 41.5664 4.78393C41.388 4.71839 41.202 4.67565 41.0128 4.65673C40.9187 4.65916 40.8264 4.6311 40.7496 4.57673C40.6952 4.53113 40.4776 4.47673 40.2504 4.44953C40.0232 4.42233 39.44 4.31993 38.9384 4.22153C38.1216 4.06153 37.468 3.98153 34.944 3.76793L34.2176 3.70393L34.1904 2.81433L34.1632 1.93433H33.0016L32.9744 2.81433ZM37.0776 11.5743L37.2376 11.7831L37.4736 11.5655L37.7184 11.3383L37.9584 11.5831C38.1944 11.8231 38.1944 11.8287 38.0312 12.0103C37.8768 12.1703 37.8496 12.1823 37.6592 12.0551C37.3864 11.8831 37.2688 11.8831 37.06 12.0735C36.9 12.2191 36.8784 12.2095 36.6512 11.9831C36.424 11.7567 36.4152 11.7375 36.5792 11.5559C36.7872 11.3199 36.88 11.3295 37.0776 11.5743ZM22.372 11.6927C22.5448 11.8831 22.572 11.9647 22.4992 12.0823C22.3448 12.3183 22.1088 12.3183 21.864 12.0919L21.6456 11.8831L21.8456 11.6743C22.0904 11.4111 22.1088 11.4111 22.372 11.6927ZM24.772 12.0191C24.7992 12.1735 24.8264 12.9271 24.8264 13.6895C24.8264 15.2231 24.8536 15.3143 25.3864 15.2599C25.6408 15.2415 25.6952 15.1871 25.7312 14.9695C25.7856 14.6695 26.004 14.5335 26.004 14.8055C26.004 15.0511 26.312 15.2959 26.564 15.2599C26.7096 15.2415 26.8 15.1415 26.864 14.9327C26.9728 14.5607 27.0544 14.5607 27.2176 14.9599C27.4176 15.4399 27.9168 15.3871 28.0072 14.8799C28.0616 14.5983 28.216 14.6263 28.3616 14.9439C28.4792 15.1975 28.552 15.2343 28.888 15.2639C29.3872 15.2999 29.5416 15.1727 29.5416 14.7375C29.5416 13.9023 30.4496 13.5119 30.9936 14.1015C31.5752 14.7279 31.7136 15.8535 31.2664 16.3255C30.9464 16.6711 30.6128 16.6255 30.1312 16.1807L29.7232 15.8087L29.4872 16.0895C29.224 16.4095 28.7424 16.4799 28.5432 16.2351C28.3888 16.0535 28.2704 16.0623 28.0344 16.2895L27.8272 16.4799L27.4648 16.2711C27.1192 16.0807 27.0832 16.0807 26.9288 16.2167C26.7112 16.4167 26.5384 16.4071 26.2024 16.2167C25.9392 16.0623 25.9216 16.0623 25.7488 16.2167C25.64 16.3167 25.4288 16.3711 25.1224 16.3711C24.7224 16.3711 24.6232 16.3351 24.4328 16.0991C24.1128 15.7263 24.024 15.1823 23.9968 13.5663L23.9784 12.1591L24.2872 11.9503C24.6776 11.6799 24.696 11.6799 24.7688 12.0191H24.772ZM43.3168 12.1191L43.5256 12.3095L43.7528 12.1007L43.9928 11.8831L44.2376 12.1279L44.4776 12.3735L44.296 12.5543C44.1144 12.7359 44.1056 12.7455 43.824 12.5815C43.5608 12.4279 43.5424 12.4279 43.352 12.5999C43.1616 12.7719 43.1616 12.7727 42.9256 12.5271C42.6896 12.2815 42.6896 12.2823 42.8528 12.1007C43.0504 11.8735 43.0592 11.8735 43.3136 12.1191H43.3168ZM22.7624 13.0903C22.943 13.2941 23.0872 13.5273 23.1888 13.7799C23.3432 14.2599 23.2528 15.0967 22.9896 15.5687C22.6896 16.1127 22.2992 16.3039 21.4192 16.3687L20.6928 16.4143L20.6384 16.8223C20.562 17.3552 20.3412 17.8571 20 18.2735C19.7184 18.6183 19.68 18.6367 19.2 18.6367C18.3832 18.6367 17.648 18.3639 18.0744 18.2191C19.1272 17.8647 20.3712 16.9751 20.3712 16.5847C20.3712 16.4247 20.0264 15.8223 19.9352 15.8223C19.833 15.7722 19.7382 15.7082 19.6536 15.6319L19.4272 15.4503L19.6448 15.0415C19.772 14.8239 19.8992 14.6415 19.944 14.6415C19.9888 14.6415 20.1528 14.7871 20.3168 14.9615C20.616 15.2815 20.6248 15.2815 21.4056 15.2815C21.932 15.2815 22.2856 15.2367 22.4584 15.1455C22.8584 14.9367 22.7856 14.8551 22.2592 14.8919C21.6056 14.9367 21.188 14.6919 21.188 14.2655C21.188 13.4479 21.6328 12.7399 22.1408 12.7399C22.372 12.7359 22.5176 12.8183 22.7624 13.0903ZM37.5944 12.8543C37.84 12.9903 38.0944 13.3263 38.2664 13.7343C38.4392 14.1607 38.4392 15.8399 38.2664 16.2759C37.8856 17.2287 37.3312 17.5647 36.0696 17.6191C34.9808 17.6647 34.4992 17.4919 34.1184 16.9199C33.9 16.5839 33.8784 16.4935 33.9184 15.8943C33.964 15.2591 34.1904 14.5871 34.3448 14.6783C34.3816 14.7055 34.3992 14.9415 34.372 15.2047C34.3448 15.6047 34.372 15.7399 34.5536 16.0047C34.8536 16.4495 35.28 16.5767 36.36 16.5223C37.3312 16.4863 37.8488 16.2679 37.9488 15.8687C38.0288 15.5487 37.9304 15.4599 37.5312 15.4599C37.0864 15.4599 36.4688 15.2151 36.3512 14.9975C36.2336 14.7799 36.2424 14.5343 36.3968 14.0375C36.5872 13.4655 36.7872 13.0935 37.0232 12.9031C37.2592 12.7127 37.3312 12.7087 37.5944 12.8543ZM47.5888 13.8343C48.2152 14.0343 48.9232 14.2247 49.168 14.2519C49.4128 14.2791 49.6408 14.3519 49.6584 14.4119C49.676 14.4719 49.6128 14.6751 49.5136 14.8567C49.3536 15.1287 49.2592 15.1831 49.0144 15.1831C48.8232 15.1831 48.2696 15.4007 47.5528 15.7431L46.3904 16.3199L45.3192 16.3567C44.3592 16.3839 44.2216 16.3655 43.9216 16.1967C43.6016 16.0063 43.5856 16.0063 43.4136 16.1607C43.2864 16.2791 43.0408 16.3335 42.5416 16.3511C41.7616 16.3967 41.616 16.4695 41.616 16.8143C41.616 17.1231 41.2344 17.9343 40.872 18.3847L40.5816 18.7479L39.9008 18.6935C39.2648 18.6295 38.9832 18.5335 38.9832 18.3663C38.9832 18.3303 39.3288 18.1399 39.7464 17.9311C40.5464 17.5311 41.2528 16.9327 41.2528 16.6511C41.2528 16.5055 41.1624 16.4695 40.6632 16.4111C40.2272 16.3655 40 16.2927 39.8008 16.1207C39.492 15.8663 39.4648 15.6303 39.6552 14.9951C39.9096 14.1687 40.2456 13.7335 40.636 13.7335C40.9168 13.7335 41.4256 14.2935 41.596 14.7735L41.756 15.2279L42.2728 15.2551C42.8264 15.2823 42.8448 15.2727 42.6904 15.0095C42.5184 14.7463 42.6816 14.3559 43.1176 13.9391C43.6528 13.4215 44.0072 13.4031 44.4152 13.8663C44.7352 14.2295 44.7872 14.6559 44.5512 14.9863C44.4248 15.1679 44.4248 15.1951 44.5608 15.2407C44.8512 15.3591 46.812 15.2135 47.184 15.0503C47.384 14.9703 47.504 14.8687 47.456 14.8231C47.3472 14.7143 46.176 14.2783 45.9944 14.2783C45.9144 14.2783 45.7496 14.3695 45.632 14.4783C45.4776 14.6143 45.392 14.6511 45.3232 14.5783C45.1056 14.3599 45.8584 13.4583 46.2584 13.4583C46.3728 13.4623 46.96 13.6255 47.5888 13.8343Z" fill="#084981"/>
<path id="Vector_3" d="M30.2152 14.4063C30.0512 14.8423 30.6048 15.8319 30.9352 15.7047C31.3072 15.5687 30.908 14.3607 30.472 14.2975C30.3512 14.2791 30.24 14.3247 30.2152 14.4063ZM30.6688 14.8783C30.7488 15.0783 30.6416 15.1687 30.5416 15.0055C30.4416 14.8423 30.4328 14.7335 30.5328 14.7335C30.5776 14.7335 30.64 14.7999 30.6688 14.8799V14.8783Z" fill="#084981"/>
<path id="Vector_4" d="M21.6456 13.6896C21.4736 13.8984 21.628 14.0096 22.1088 14.0096C22.5896 14.0096 22.6624 13.9184 22.3536 13.7008C22.1 13.52 21.7912 13.52 21.6456 13.6896Z" fill="#084981"/>
<path id="Vector_5" d="M36.8416 13.9255C36.6816 14.1071 36.6816 14.1159 36.8504 14.2455C37.0408 14.3815 37.6768 14.4183 37.7488 14.2911C37.8128 14.1999 37.4584 13.8639 37.2048 13.7919C37.0776 13.7527 36.96 13.7895 36.8416 13.9255Z" fill="#084981"/>
<path id="Vector_6" d="M43.1777 14.4703C42.9233 14.5695 42.9505 14.7103 43.2681 14.9423C43.4497 15.0783 43.5881 15.1023 43.8401 15.0599C44.2577 14.9799 44.3481 14.7607 44.0577 14.5423C43.8217 14.3607 43.5041 14.3335 43.1777 14.4703Z" fill="#084981"/>
<path id="Vector_7" d="M40.1367 14.8C40.0183 14.9088 40.0727 15.172 40.2167 15.2264C40.4071 15.2992 40.9367 15.2992 41.0063 15.2176C41.1239 15.1088 40.6791 14.7376 40.4343 14.7376C40.2999 14.7336 40.1639 14.7608 40.1367 14.8Z" fill="#084981"/>
<path id="Vector_8" d="M28.9983 28.6672V32.616L32.9743 32.5976L36.9407 32.5704L36.9687 28.64L36.9863 24.72H28.9983V28.6672ZM35.8063 28.6216V31.44L32.9743 31.4216L30.1327 31.3944L30.1055 28.5984L30.0879 25.812H35.8063V28.6216Z" fill="black"/>
<path id="Vector_9" d="M31.2681 28.6215V30.3463L32.9745 30.3279L34.6721 30.3007L34.6993 28.5943L34.7177 26.8967H31.2681V28.6215Z" fill="black"/>
<path id="Vector_10" d="M40.436 25.8079V26.9063L40.996 26.8791L41.556 26.8519L41.5376 25.8119L41.5288 24.7679L40.9752 24.7407L40.4304 24.7135L40.436 25.8079Z" fill="black"/>
<path id="Vector_11" d="M42.7056 25.2632V25.8168L43.2768 25.7896L43.8368 25.7624L43.864 25.236L43.8912 24.7184H42.7056V25.2632Z" fill="black"/>
<path id="Vector_12" d="M47.3071 24.7816C47.2711 24.8096 47.2439 25.0544 47.2439 25.3264V25.8064H46.1639L46.1367 26.3232L46.1095 26.8504L45.5495 26.8776L44.9775 26.9048V27.4312C44.9775 28.012 44.9231 28.0712 44.4055 28.0712C43.9791 28.0712 43.9063 27.9808 43.8703 27.436L43.8431 26.9368L43.2831 26.9096L42.7119 26.8824V29.152L43.2831 29.1792L43.8431 29.2064L43.8519 29.7232L43.8615 30.2408L42.7175 30.268L41.5735 30.2952L41.5463 30.8552L41.5191 31.4152L42.0911 31.4424L42.6631 31.4696L42.6903 31.9872L42.7175 32.5136H41.6247L41.5999 32L41.5727 31.4824L41.0127 31.4552L40.4407 31.428V29.1752L41.0127 29.148L41.5727 29.1208L41.5999 28.676C41.6183 28.4312 41.5911 28.196 41.5455 28.1496C41.4551 28.0592 38.3047 27.9952 38.1599 28.0768C38.1055 28.1136 38.0799 28.3584 38.0967 28.6304L38.1239 29.1208L38.6679 29.1664L39.2127 29.212L39.2399 29.7288L39.2671 30.2464L38.6951 30.2736L38.1239 30.3008V32.5704L38.6951 32.5976L39.2671 32.6248L39.2399 33.1424L39.2127 33.66L37.5151 33.6872L35.8087 33.7048V34.7944H34.7199V33.7048H28.9983V34.7944H29.6607C30.04 34.7949 30.4189 34.816 30.7959 34.8576L31.2759 34.912L31.2487 35.4208L31.2215 35.9288L30.6615 35.956L30.0895 35.9832V37.064H28.9983V38.2344L29.5247 38.2616L30.0423 38.2888L30.0695 38.8064L30.0967 39.3328H32.3479L32.3751 39.8928L32.4023 40.4648L32.9743 40.492L33.5463 40.5192L33.5199 41.04L33.4927 41.5576L32.3847 41.5848L31.2775 41.612L31.2503 42.172L31.2231 42.732H30.1327L30.1055 42.16L30.0783 41.6H28.9983V48.408H30.0879L30.1055 46.168L30.1327 43.9168L31.2407 43.8896L32.3479 43.8624L32.3751 44.4344L32.4023 45.0064L33.5639 45.0336L34.7175 45.0608V47.2304H33.5367V46.1408H31.2679V48.4104H38.0679L38.0959 49.5176L38.1231 50.6376L38.6671 50.6832L39.2119 50.728L39.2575 51.2728L39.3031 51.8176L39.8471 51.8088L40.3919 51.7904L40.4375 51.264L40.4831 50.728L41.0095 50.7008L41.5271 50.6736V52.96L40.4191 52.9328L39.2991 52.9056L39.2719 52.3336L39.2447 51.7616L38.6847 51.7888L38.1247 51.816V57.3528L38.6847 57.3808L39.2447 57.408L39.2719 56.8808L39.2991 56.3544L39.8591 56.3272L40.4191 56.3L40.4463 55.1928L40.4735 54.0856L42.1799 54.0584L43.8775 54.04V52.9488H44.9663V55.2184H46.1463V56.308H43.8855V55.2184H41.5255V56.308H43.8855V57.3968L45.5919 57.3792L47.2895 57.3512L47.3167 56.2808L47.3439 55.2184H50.6935V56.308H52.9535L52.9807 56.8248L53.0079 57.3512L53.5799 57.3792L54.1399 57.4064V56.308H55.3207V57.3968L57.0271 57.3792L58.7247 57.3512L58.7519 55.6904L58.7695 54.0296L59.2959 54.0568L59.8135 54.084L59.8407 55.1912L59.8679 56.3112H61.0303L61.0575 55.1912L61.0847 54.084L61.6111 54.0568L62.1287 54.0296V50.68H59.8615V51.224C59.8615 51.724 59.8799 51.7688 60.0791 51.8232C60.1801 51.8515 60.2869 51.8515 60.3879 51.8232C60.5103 51.7948 60.6375 51.7948 60.7599 51.8232C61.0503 51.8872 61.0503 51.8872 61.0231 52.3952L60.9959 52.904L59.8887 52.9312L58.7687 52.9584V54.0384H57.5919V51.86H58.0367C58.7359 51.86 58.7719 51.8232 58.7719 51.2152V50.6888L58.2119 50.6616L57.6399 50.6344L57.6127 50.1168L57.5855 49.5992L58.1575 49.572L58.7295 49.5448L58.7567 47.8384L58.7743 46.1408H59.8639V45.0608L60.4359 45.0336L60.9959 45.0064L61.0231 44.4464L61.0503 43.8864L60.4791 43.8592L59.9071 43.832L59.8799 43.3144L59.8527 42.7968L58.7447 42.7696L57.6375 42.7424V41.648L58.2095 41.6208L58.7695 41.5936V40.5128H61.0303L61.0575 39.3928L61.0847 38.2848L61.5839 38.24L62.0831 38.1944V37.1088L60.9631 37.0816L59.8431 37.0544L59.8703 36.5368L59.8975 36.02L60.4695 35.9928L61.0295 35.9656V33.7048H59.8615V34.7944H58.7719V33.7048H57.5919V34.7944H56.3999L56.4271 35.3544L56.4543 35.9264L57.0263 35.9536L57.5863 35.9808V38.2504L58.1583 38.2232L58.7183 38.196L58.7631 37.6512L58.8087 37.1064L59.3351 37.0792L59.8527 37.052V39.3304H56.4119V40.5104H55.3231V42.78H56.4119V43.872H55.3231V45.052H56.4119V46.1408H57.5919V47.2304H56.5119L56.4847 46.704L56.4575 46.1864L55.3231 46.1408L54.1879 46.096L54.1599 45.6C54.1415 45.328 54.0799 45.0736 54.0239 45.04C53.9679 45.0064 53.7247 44.9672 53.4887 44.9672H53.0527L53.0343 43.3064L53.0071 41.6544L52.4471 41.6272L51.8871 41.6L51.8599 42.716L51.8327 43.836L51.2607 43.8632L50.6887 43.8904L50.7159 44.4504L50.7431 45.0104L51.8631 45.0376L52.9703 45.0648V47.2344H48.4239V46.1408H49.6039V45.0608L49.2039 45.0064C48.5143 44.8976 48.4687 44.9336 48.4415 45.5784L48.4143 46.1384H47.3343V45.052H48.4239V43.872H49.6039V42.7824H48.4239V43.8624L47.8639 43.8896L47.2919 43.9168L47.2647 44.4256L47.2375 44.9336L46.1391 44.988C45.5303 45.0248 44.7791 45.052 44.4591 45.052H43.8871V43.872H46.1559V42.7912L46.7279 42.764L47.2879 42.7368L47.3151 42.1648L47.3423 41.6048H49.6023V40.5248L49.0423 40.4976L48.4703 40.4704V39.3784L49.0423 39.3512L49.6023 39.324V38.244H43.8855V37.064H44.9743V35.9744H46.1543V37.064H47.3343V35.9744H46.1543V33.7048H43.8855V34.7944H42.7055V32.6248L43.2767 32.5976L43.8367 32.5704L43.8639 31.4504L43.8911 30.3432H46.1511V31.44H44.9655L44.9927 32L45.0199 32.572H46.1095L46.1367 32L46.1639 31.44H47.2439V33.7088H48.4239V34.2352C48.4239 34.5264 48.4423 34.7896 48.4599 34.8072C48.4775 34.8248 48.7511 34.8256 49.0503 34.8168L49.6039 34.78V33.7048H48.4151L48.4423 32.5888L48.4695 31.4808L49.0415 31.4536L49.6015 31.4264V32.616H50.6911V31.44H49.6039V30.3464H51.8639L51.8919 29.7744L51.9191 29.2144L52.4903 29.1872L53.0503 29.16V28.08H52.7415C52.5439 28.0758 52.3469 28.0576 52.1519 28.0256C51.8791 27.9712 51.8703 27.9624 51.8703 27.436V26.9H50.6935V27.436C50.6935 27.836 50.6567 27.9808 50.5479 28.0256C50.3575 28.0984 48.9047 28.0984 48.0335 28.0256L47.3343 27.9624V25.808H48.4239V26.8968H49.6039V25.808H51.8735V24.72H49.6223C48.3783 24.72 47.3343 24.7456 47.3071 24.7816ZM47.2439 29.7112V30.256H46.1543V29.776C46.1543 29.504 46.1815 29.2584 46.2183 29.2312C46.2551 29.204 46.4903 29.168 46.7631 29.168H47.2431L47.2439 29.7112ZM40.4359 31.98V32.5248H39.2559V32.0448C39.2559 31.772 39.2831 31.5272 39.3191 31.5C39.3551 31.4728 39.6191 31.4368 39.9095 31.4368H40.4359V31.98ZM41.5255 34.2496V34.7944H40.4359V37.064H41.4983L41.5615 36.0016C41.5975 35.4112 41.6343 34.9304 41.6415 34.9216C41.8129 34.8938 41.9863 34.8798 42.1599 34.88L42.6591 34.8528L42.6863 35.4128L42.7135 35.9728H43.8847V34.7944H44.2847C44.9295 34.7944 44.9743 34.8304 44.9743 35.4392V35.9744H43.8855V37.064H42.7055V39.324L43.2767 39.3512L43.8367 39.3784L43.8639 39.9384L43.8911 40.5104H44.9623L44.9895 39.9384L45.0167 39.3784L46.1367 39.3512L47.2439 39.324V40.5128H46.1543V41.6H44.9839L44.9567 42.16L44.9295 42.732H42.7503V41.648L43.3223 41.6208L43.8823 41.5936V40.5128H41.5343L41.5071 41.6208L41.4799 42.7408L40.9623 42.768L40.4359 42.7952V43.8664L41.5559 43.8936L42.6631 43.9208L42.6903 44.4808L42.7175 45.0528H43.8887V46.1416H44.9775V47.2312H43.8855V46.1408H41.6159V45.6512C41.6159 45.0792 41.4983 44.9432 41.0079 44.9608C40.4271 44.988 40.4359 45.0064 40.4359 44.416V43.872H39.2647L39.2375 44.9792L39.2103 46.0992L38.6927 46.1264L38.1663 46.1536V45.052H34.7199V43.8808L34.1599 43.8536L33.5879 43.8264L33.5607 43.3088L33.5335 42.7912L34.1055 42.764L34.6775 42.7368L34.7047 41.6168L34.7319 40.5088H33.5367V39.3328H32.4479V38.2344L32.9743 38.2616L33.4919 38.2888L33.5191 38.8064L33.5463 39.3328H34.7199V38.244H35.7999L35.8271 37.672L35.8543 37.112H36.9431V38.2016L36.3831 38.2288L35.8111 38.256V39.336L37.5175 39.3544L39.2151 39.3816L39.2423 39.9416L39.2695 40.5136H40.4407V39.3424L41.0127 39.3152L41.5727 39.288V38.2888L40.4383 38.244L39.3039 38.1984L39.2767 37.6264L39.2495 37.0664H38.1663V35.9832L37.0135 35.956L35.8519 35.9288L35.8247 35.3568L35.7975 34.7856L38.0943 34.8032L40.3903 34.8216L40.4175 34.3768C40.4543 33.7144 40.4631 33.7048 41.0255 33.7048H41.5255V34.2496ZM34.7175 35.9296V37.064H32.4479V34.8944L32.9279 34.8576C33.1823 34.84 33.6999 34.8216 34.0631 34.8128L34.7167 34.7944L34.7175 35.9296ZM58.7719 35.24C58.7719 35.9392 58.7359 35.9752 58.1319 35.9752H57.5959V34.7944H58.7759L58.7719 35.24ZM58.7199 44.0168C58.7471 44.0968 58.7743 44.6072 58.7743 45.152V46.1408H57.5919V45.0696C57.5919 44.48 57.6191 43.9624 57.6559 43.9352C57.6927 43.908 57.9279 43.872 58.1911 43.872C58.5359 43.872 58.6727 43.908 58.7199 44.0168ZM36.9687 46.704L36.9959 47.2304H35.8063V46.7504C35.8063 46.4776 35.8335 46.2328 35.8703 46.196C35.9071 46.1592 36.1607 46.1416 36.4415 46.16L36.9407 46.1872L36.9687 46.704ZM47.2623 46.704L47.2895 47.276L47.8615 47.3032L48.4215 47.3304V49.5H46.1543V50.68H47.2351L47.2623 51.24L47.2895 51.812L47.8615 51.8392L48.4215 51.8664V52.9464H49.6015V51.7688H48.4151L48.4423 51.2424L48.4695 50.7248L49.0415 50.6976L49.6015 50.6704V49.5904H50.6911V50.68H49.6039V51.7688H49.9943C50.2031 51.7688 50.7143 51.796 51.1287 51.8328L51.8735 51.8872L51.8551 53.5304L51.8279 55.1728L51.2679 55.2L50.6959 55.2272V52.9488H49.6127L49.5855 53.4664L49.5583 53.9928L48.9983 54.02L48.4263 54.0472V52.9488H47.2439V54.0384H46.1639L46.1367 52.9184L46.1095 51.8112L45.0015 51.784L43.8855 51.76V52.96L43.3255 52.9328L42.7535 52.9056L42.7263 52.388L42.6991 51.8792L43.2983 51.816L43.8887 51.7528V50.68H41.6159V49.5904L43.2767 49.572L44.9295 49.5448L44.9743 49.0008L45.0199 48.456L45.5919 48.4288L46.1519 48.4016V47.3304C46.1519 46.74 46.1791 46.232 46.2159 46.2048C46.2527 46.1776 46.4879 46.1408 46.7511 46.1408H47.2311L47.2623 46.704ZM40.4359 47.8656V48.4104H41.5255V49.5H39.2559V47.3208H40.4359V47.8656ZM43.8855 47.748C43.8855 48.3648 43.8215 48.4288 43.2407 48.388L42.7503 48.3608L42.7199 47.84L42.6927 47.3224H43.8823L43.8855 47.748ZM51.8551 48.9728L51.8823 49.5H50.6935V49.02C50.6935 48.748 50.7207 48.5024 50.7567 48.4664C50.7927 48.4304 51.0471 48.412 51.3287 48.4304L51.8279 48.4576L51.8551 48.9728ZM56.4151 50.0928V51.7728H53.0551V48.4128H56.4151V50.0928ZM56.4151 53.4968V54.0416H55.3231V55.2216H56.4119V56.3112H55.3231V55.2184H54.1423V56.308H53.0535V55.2184H54.1423V54.0384H53.0535V52.9488H56.4135L56.4151 53.4968Z" fill="black"/>
<path id="Vector_13" d="M34.72 39.9199V40.5095H35.8088V41.5999H36.9888V40.5199L36.4288 40.4927L35.8568 40.4655L35.8296 39.8935L35.8024 39.3335H34.72V39.9199Z" fill="black"/>
<path id="Vector_14" d="M38.112 41.7296C38.0848 41.7928 38.076 42.0496 38.0944 42.2896L38.1216 42.7344L38.6928 42.7616L39.2528 42.7888V41.6H38.708C38.3304 41.6 38.1488 41.6384 38.112 41.7296Z" fill="black"/>
<path id="Vector_15" d="M35.8064 43.3271V43.8719H36.9864V42.7823H35.8064V43.3271Z" fill="black"/>
<path id="Vector_16" d="M54.2063 49.5544C54.1703 49.5904 54.1423 49.8624 54.1423 50.1536V50.68H55.3319L55.3047 50.108L55.2775 49.548L54.7783 49.5208C54.4967 49.5 54.2399 49.52 54.2063 49.5544Z" fill="black"/>
<path id="Vector_17" d="M54.1599 28.64L54.1871 32.5704H62.0847V24.764L58.1087 24.7368L54.1423 24.72L54.1599 28.64ZM61.0223 28.5944L60.9951 31.3904L58.1631 31.4176L55.3223 31.436V25.808H61.0399L61.0223 28.5944Z" fill="black"/>
<path id="Vector_18" d="M56.4488 27.0151C56.4304 27.0783 56.4216 27.8407 56.4304 28.7127L56.4576 30.3007L58.164 30.3279L59.8616 30.3463V26.8967H58.1816C56.8936 26.8967 56.4848 26.9239 56.4488 27.0151Z" fill="black"/>
<path id="Vector_19" d="M18.9679 25.9439C17.6519 26.6159 17.0343 27.9775 17.4159 29.3935C17.5759 30.0287 17.7607 30.3375 18.2159 30.7639C18.9967 31.5175 20.0559 31.7807 21.0479 31.4839C21.6079 31.3119 21.9647 31.0935 22.4367 30.6039C22.9911 30.0319 23.1903 29.4959 23.1903 28.5975C23.1903 27.6991 22.9999 27.2271 22.3903 26.5975C21.7271 25.9167 21.3919 25.7807 20.3295 25.7439C19.5031 25.7167 19.3767 25.7351 18.9679 25.9439Z" fill="#084981"/>
<path id="Vector_20" d="M38.112 25.9352C38.0848 25.9984 38.076 26.2344 38.0944 26.452L38.1216 26.852L38.6928 26.8792L39.2528 26.9064V25.808H38.708C38.3304 25.808 38.1488 25.844 38.112 25.9352Z" fill="black"/>
<path id="Vector_21" d="M51.8735 32.0256V32.6248L52.4455 32.5976L53.0055 32.5704L53.0327 31.9984L53.0599 31.4384H51.8735V32.0256Z" fill="black"/>
<path id="Vector_22" d="M18.8953 32C18.4953 32.1088 16.8257 33.5792 15.9729 34.5784C15.6817 34.9232 15.2465 35.404 15.0193 35.6584C14.5657 36.1384 13.2225 37.8824 12.9225 38.3632C12.8122 38.5702 12.7529 38.8006 12.7497 39.0352C12.7484 39.2507 12.7149 39.4647 12.6505 39.6704C12.5803 39.856 12.5234 40.0463 12.4801 40.24C12.4441 40.4128 12.3201 40.8848 12.2081 41.284C12.0961 41.6832 11.9721 42.1736 11.9265 42.3728C11.8809 42.572 11.7721 42.9992 11.6817 43.3264C11.5001 43.98 11.5177 43.9664 10.7377 43.7888C10.4921 43.7344 10.1113 43.6528 9.88408 43.5984C9.23928 43.4624 9.20328 43.3992 9.40408 42.8272C9.69448 41.992 9.59448 41.756 8.92408 41.7464C8.54328 41.7376 8.54328 41.7376 8.41608 42.1912C8.17608 43.0264 8.14328 43.0808 7.87128 43.0264C7.73528 42.9992 7.31768 42.8904 6.94568 42.7816C5.88328 42.4824 5.33848 42.4616 4.91208 42.7088C4.48568 42.956 4.28088 43.3088 4.00008 44.416C3.88248 44.888 3.69128 45.6056 3.58248 46.0048C3.47368 46.404 3.28008 47.0944 3.16408 47.548C3.04808 48.0016 2.85608 48.6736 2.75608 49.0456C2.65608 49.4176 2.53768 49.872 2.50168 50.044C2.42888 50.364 2.36568 50.5984 2.09288 51.4512C1.80248 52.3496 1.95688 53.1128 2.50168 53.512C2.67448 53.6392 3.07368 53.8112 3.40008 53.9024C3.72648 53.9936 4.17208 54.1112 4.39928 54.1744C4.62648 54.2376 5.31608 54.4288 5.94168 54.5832C7.82088 55.0632 7.75768 55.028 7.94168 55.5176C8.15048 56.0624 8.25048 56.1896 8.67688 56.4072C9.13928 56.6432 9.52968 56.6256 9.98408 56.3528C10.1524 56.2515 10.2985 56.1173 10.4138 55.9583C10.5292 55.7993 10.6113 55.6187 10.6553 55.4273C10.6994 55.2359 10.7044 55.0376 10.6702 54.8442C10.636 54.6508 10.5632 54.4662 10.4561 54.3016C10.2961 54.0656 10.2649 53.9296 10.3105 53.7208C10.6305 52.4408 10.9641 51.0976 11.0825 50.6808C11.1625 50.408 11.3361 49.7544 11.4825 49.228C11.6289 48.7016 11.7817 48.148 11.8273 48.0024C11.9185 47.7216 12.1273 46.9224 12.3537 46.0024C12.4265 45.7032 12.5537 45.2488 12.6265 45.004C12.6993 44.7592 12.8353 44.2232 12.9345 43.824C13.1977 42.7984 13.4705 41.8176 13.6425 41.2552L13.7881 40.7832H14.2057C14.7593 40.7832 15.1769 40.556 15.6129 40.0024C15.8121 39.7392 16.2297 39.2024 16.5473 38.7952C16.8649 38.388 17.1465 38.06 17.1833 38.06C17.2201 38.06 17.2553 39.0496 17.2553 40.2656C17.2553 41.4816 17.3105 42.8072 17.3553 43.2336L17.4401 44.008L17.1201 44.5976C15.8673 46.8312 14.4881 50.4168 13.3713 54.2928C13.1897 54.9368 13.6801 55.872 14.3241 56.1168C14.6601 56.244 15.4441 56.244 15.6841 56.1168C16.2441 55.8264 16.4649 55.4816 16.8377 54.2768C17.0457 53.6232 17.3273 52.7608 17.4729 52.3616C17.6185 51.9624 17.7929 51.4176 17.8729 51.1544C17.9806 50.8009 18.108 50.4537 18.2545 50.1144C18.3809 49.8056 18.5265 49.4696 18.5625 49.3696C18.5985 49.2696 18.8897 48.6256 19.2073 47.936C19.7673 46.6832 19.9697 46.3744 20.0513 46.6104C20.4057 47.6632 21.0769 49.7056 21.2409 50.232C21.4857 51.0128 22.1665 53.0008 22.5753 54.1352C23.0201 55.3608 23.4377 55.7696 24.2553 55.7696C24.7729 55.7696 25.4897 55.3976 25.7345 54.9976C26.0705 54.444 26.0617 54.0376 25.6897 52.9552C25.5081 52.4288 25.3265 51.8752 25.2809 51.7304C25.2177 51.4848 24.7905 50.2048 23.8465 47.4184C23.6473 46.8464 23.3561 45.9656 23.1929 45.4664C23.0297 44.9672 22.8569 44.4776 22.8025 44.3776C22.7481 44.2776 22.6849 43.8512 22.6753 43.424C22.6657 42.9968 22.6209 42.064 22.5665 41.3368C22.4577 39.8568 22.4393 38.3408 22.5305 38.3408C22.5577 38.3408 22.7937 38.5312 23.0481 38.7672C23.4657 39.1576 24.0921 39.6472 25.2809 40.5376C25.8073 40.928 27.1689 41.7536 27.5049 41.8808C27.8409 42.008 28.2585 41.8632 28.6849 41.4544L29.0297 41.128L28.9841 40.2288C28.9297 39.1576 28.9665 39.2032 27.5953 38.2864C25.6345 36.9608 24.3369 35.7992 23.0353 34.1832C22.1097 33.04 21.4833 32.4136 21.0113 32.168C20.5393 31.9224 19.4489 31.8352 18.8953 32ZM8.19288 45.1608C8.35288 45.3208 8.32008 46.1136 8.12088 46.8488C8.04404 47.102 7.98338 47.3598 7.93928 47.6208C7.93928 47.684 8.42888 48.2744 9.02808 48.9456C9.62728 49.6168 10.1361 50.2352 10.1721 50.3344C10.2353 50.5344 9.99048 50.952 9.81768 50.952C9.74568 50.952 9.37368 50.716 8.97368 50.4256C8.57368 50.1352 8.09368 49.808 7.90248 49.6992C7.45768 49.436 7.40328 49.4816 7.09448 50.444L6.85448 51.152L7.16328 51.4512C7.50808 51.7712 7.55368 51.96 7.33608 52.1408C7.21768 52.232 7.03608 52.2048 6.22888 51.9504C5.07608 51.5872 4.95768 51.5056 5.10328 51.1792C5.18328 51.0064 5.27528 50.952 5.48408 50.952C5.79288 50.952 6.11928 50.68 6.11928 50.4072C6.14779 50.1713 6.19351 49.9379 6.25608 49.7088C6.34648 49.3632 6.36488 49.164 6.30088 49.1C6.23688 49.036 5.60248 48.9824 4.86728 48.9552L3.53288 48.9096L3.56008 48.5896C3.56888 48.4168 3.61448 48.2448 3.65928 48.1992C3.70408 48.1536 4.40408 47.9632 5.22088 47.7632C6.03768 47.5632 6.77288 47.3368 6.85448 47.264C6.93608 47.1912 7.03608 46.9736 7.07288 46.792C7.18168 46.22 7.47288 45.4848 7.68088 45.2584C7.88888 45.032 8.02968 44.9976 8.19288 45.1608Z" fill="#084981"/>
<path id="Vector_23" d="M51.8737 34.2495V34.7855L51.3137 34.8127L50.7417 34.8399L50.7145 35.3999L50.6873 35.9719H52.9601V37.0639H51.8737V39.3239L51.3137 39.3511L50.7417 39.3783V40.4679H53.0081L53.0353 38.7607L53.0537 37.0543L53.5801 37.0815L54.0977 37.1087L54.1249 37.6687L54.1521 38.2407H55.3233V39.3391L55.8945 39.3119L56.4545 39.2847V38.2887L55.8945 38.2615L55.3233 38.2343V34.7855L55.8225 34.8031C56.1033 34.8215 56.3665 34.7855 56.4217 34.7303C56.4769 34.6751 56.5017 34.4399 56.4849 34.1951L56.4577 33.7503L55.8977 33.7231L55.3265 33.6959V34.7943H54.1425V33.7047H51.8737V34.2495ZM54.1425 35.3839V35.9743H53.0537V34.8943L53.3985 34.8575C54.2065 34.7759 54.1425 34.7303 54.1425 35.3839Z" fill="black"/>
<path id="Vector_24" d="M48.4241 36.5192V37.064H49.6041V35.9744H48.4241V36.5192Z" fill="black"/>
<path id="Vector_25" d="M61.04 47.8199V48.4103H59.8528L59.88 48.9703L59.9072 49.5423H60.996L61.0232 48.9703L61.0504 48.4103H62.14L62.1128 47.8383L62.0856 47.2783L61.568 47.2511L61.0416 47.2239L61.04 47.8199Z" fill="black"/>
<path id="Vector_26" d="M28.9983 53.4479V57.3967H36.9863V49.4999H28.9983V53.4479ZM35.8063 53.4935V56.3079H30.0879V53.5575C30.0879 52.0375 30.1151 50.7703 30.1511 50.7431C30.1871 50.7159 31.4671 50.6799 33.0103 50.6799H35.8063V53.4935Z" fill="black"/>
<path id="Vector_27" d="M31.2681 53.4935V55.2183H34.7201L34.7017 53.5119L34.6745 51.8143L32.9769 51.7871L31.2705 51.7687L31.2681 53.4935Z" fill="black"/>
<path id="Vector_28" d="M48.4241 56.852V57.3968H49.6041V56.308H48.4241V56.852Z" fill="black"/>
<path id="Vector_29" d="M4.34398 60.1599C4.31678 60.2231 4.31678 60.8583 4.32638 61.5759L4.35358 62.8919H5.07998L5.12478 62.1655C5.17038 61.4671 5.17918 61.4399 5.39758 61.4399C5.61598 61.4399 5.62398 61.4671 5.66958 62.1655L5.71518 62.8919H6.44158V62.0535C6.44158 61.3727 6.40478 61.1911 6.26878 61.0367C6.05998 60.8103 5.47918 60.7735 5.30878 60.9823C5.13838 61.1911 5.08238 61.0735 5.08238 60.5471V60.0751L4.73678 60.0655C4.54398 60.0567 4.36238 60.1023 4.34398 60.1599Z" fill="#084981"/>
<path id="Vector_30" d="M14.8287 60.0471C14.8287 60.0655 14.6743 60.7191 14.4839 61.5087C14.2023 62.6983 14.1567 62.9615 14.2655 62.9975C14.298 63.0124 14.3341 63.0177 14.3695 63.0129C14.4049 63.0081 14.4382 62.9933 14.4655 62.9703C14.5655 62.8615 15.1919 60.1839 15.1375 60.1023C15.1007 60.0383 14.8471 59.9999 14.8287 60.0471Z" fill="#084981"/>
<path id="Vector_31" d="M15.9815 60.1023C15.9175 60.2015 15.3551 62.5895 15.3463 62.7983C15.3367 62.9159 15.3911 62.9791 15.5063 62.9791C15.6511 62.9791 15.7151 62.8191 15.9239 61.8903C16.0599 61.2911 16.2143 60.6463 16.2687 60.4647C16.3231 60.2831 16.3319 60.1111 16.3047 60.0839C16.2576 60.0476 16.199 60.0295 16.1397 60.0329C16.0803 60.0363 16.0241 60.0609 15.9815 60.1023Z" fill="#084981"/>
<path id="Vector_32" d="M37.8943 60.3199C37.8943 60.5743 37.9127 60.5831 38.2391 60.5599C38.5207 60.5327 38.5751 60.4959 38.5751 60.3151C38.5751 60.1343 38.5295 60.0967 38.2391 60.0791C37.9127 60.0567 37.8943 60.0751 37.8943 60.3199Z" fill="#084981"/>
<path id="Vector_33" d="M41.3712 60.1384C41.3344 60.2016 41.1528 60.8648 40.9712 61.6C40.6992 62.72 40.6632 62.96 40.772 62.9976C40.8061 63.0119 40.8434 63.017 40.8801 63.0122C40.9168 63.0074 40.9515 62.993 40.9808 62.9704C41.0808 62.8616 41.7064 60.1928 41.652 60.1024C41.58 59.9928 41.4528 60.0112 41.3712 60.1384Z" fill="#084981"/>
<path id="Vector_34" d="M51.6376 60.1111C51.608 60.1925 51.5955 60.2791 51.6008 60.3655C51.6008 60.5559 51.6376 60.5743 52.0184 60.5743C52.3992 60.5743 52.4272 60.5647 52.4 60.3287C52.3728 60.1199 52.3272 60.0887 52.028 60.0839C51.84 60.0751 51.6552 60.0927 51.6376 60.1111Z" fill="#084981"/>
<path id="Vector_35" d="M55.5407 60.1599C55.5135 60.2231 55.5135 60.8583 55.5223 61.5759L55.5495 62.8919H56.2759L56.3031 62.2383C56.3303 61.5759 56.4575 61.3215 56.7207 61.4215C56.8207 61.4671 56.8663 61.6663 56.8807 62.1839L56.9079 62.8919H57.6343V62.0623C57.6343 61.3727 57.6071 61.1911 57.4615 61.0367C57.2527 60.8103 56.6719 60.7735 56.5015 60.9823C56.3311 61.1911 56.2743 61.0735 56.2743 60.5471V60.0751L55.9295 60.0655C55.7407 60.0567 55.5591 60.1023 55.5407 60.1599Z" fill="#084981"/>
<path id="Vector_36" d="M7.42152 60.32C7.26152 60.42 7.12232 60.5744 7.12232 60.6648C7.12 60.7094 7.10619 60.7527 7.08222 60.7904C7.05825 60.8281 7.02494 60.8589 6.98552 60.88C6.91352 60.9072 6.84952 61.0256 6.84952 61.1528C6.84785 61.2058 6.85941 61.2585 6.88315 61.306C6.90689 61.3534 6.94207 61.3943 6.98552 61.4248C7.08552 61.4616 7.12232 61.6248 7.12232 62.0512C7.12232 62.8136 7.23112 62.9496 7.80312 62.9136C8.21992 62.8864 8.25672 62.868 8.25672 62.6592C8.25672 62.4992 8.21112 62.4328 8.07512 62.4328C7.92072 62.4328 7.89352 62.36 7.86632 61.9528C7.83912 61.5176 7.85752 61.4728 8.07512 61.3928C8.37432 61.284 8.36552 60.8936 8.07512 60.8936C7.92952 60.8936 7.88472 60.8208 7.86632 60.5032C7.83032 60.0752 7.82072 60.0656 7.42152 60.32Z" fill="#084981"/>
<path id="Vector_37" d="M9.19206 60.3111C8.98326 60.4199 8.84646 60.5559 8.84646 60.6559C8.84474 60.7021 8.83137 60.747 8.80759 60.7866C8.78381 60.8262 8.7504 60.8591 8.71046 60.8823C8.66999 60.9028 8.63591 60.934 8.61193 60.9725C8.58795 61.011 8.57499 61.0554 8.57446 61.1007C8.58158 61.2112 8.63015 61.3149 8.71046 61.3911C8.80166 61.4639 8.84646 61.6727 8.84646 62.0175C8.84646 62.7375 9.00086 62.9343 9.57286 62.9343C9.81766 62.9343 10.0361 62.9071 10.0529 62.8615C10.1249 62.7431 9.96166 62.4351 9.83446 62.4351C9.75446 62.4351 9.68966 62.2807 9.65286 61.9807C9.58966 61.4543 9.60806 61.3911 9.85286 61.3911C9.98006 61.3911 10.0249 61.3271 10.0249 61.1183C10.0249 60.8919 9.98886 60.8463 9.80726 60.8463C9.60806 60.8463 9.58966 60.8191 9.63526 60.4831C9.69126 60.0751 9.66406 60.0567 9.19206 60.3111Z" fill="#084981"/>
<path id="Vector_38" d="M58.6176 60.3199C58.4576 60.4199 58.3184 60.5743 58.3184 60.6647C58.3166 60.7097 58.3032 60.7534 58.2793 60.7916C58.2555 60.8298 58.222 60.861 58.1824 60.8823C58.1419 60.9028 58.1078 60.934 58.0838 60.9725C58.0599 61.011 58.0469 61.0553 58.0464 61.1007C58.0535 61.2112 58.1021 61.3149 58.1824 61.3911C58.2728 61.4711 58.3184 61.6815 58.3184 62.0623C58.3184 62.8159 58.4272 62.9519 58.9992 62.9159C59.4168 62.8887 59.4528 62.8703 59.4528 62.6615C59.4528 62.5015 59.408 62.4351 59.2712 62.4351C59.1168 62.4351 59.0896 62.3623 59.0624 61.9551C59.0352 61.5199 59.0536 61.4751 59.2712 61.3951C59.5712 61.2863 59.5616 60.8959 59.2712 60.8959C59.1264 60.8959 59.0808 60.8231 59.0624 60.5055C59.0264 60.0751 59.0176 60.0655 58.6176 60.3199Z" fill="#084981"/>
<path id="Vector_39" d="M10.5167 60.964C10.4983 61.028 10.4895 61.6544 10.4983 62.344L10.5263 63.6152H10.8463C11.1543 63.6152 11.1663 63.6056 11.1911 63.2336L11.2183 62.8616L11.6983 62.9072C12.1431 62.952 12.1887 62.9432 12.4183 62.6616C12.7631 62.2536 12.7719 61.5272 12.4271 61.128C12.3033 60.9793 12.1301 60.88 11.9392 60.8483C11.7483 60.8166 11.5524 60.8545 11.3871 60.9552C11.2327 61.0464 11.1783 61.0464 11.1471 60.9552C11.0887 60.8104 10.5807 60.8104 10.5167 60.964ZM11.7695 61.4544C11.9871 61.6544 11.9783 62.1352 11.7511 62.344C11.5791 62.4984 11.5607 62.4984 11.3879 62.344C11.1703 62.1448 11.1519 61.6904 11.3607 61.464C11.5423 61.264 11.5607 61.264 11.7695 61.4544Z" fill="#084981"/>
<path id="Vector_40" d="M13.1496 60.9735C13.1186 61.1013 13.1124 61.2338 13.1312 61.3639C13.1584 61.6039 13.1944 61.6175 13.5216 61.6175H13.8848V61.2551C13.8848 60.9007 13.8752 60.8919 13.54 60.8647C13.304 60.8463 13.1856 60.8735 13.1496 60.9735Z" fill="#084981"/>
<path id="Vector_41" d="M16.4353 60.9191C16.3905 60.9991 16.9801 62.6439 17.1345 62.8255C17.1889 62.8887 17.3521 62.9343 17.5065 62.9159C17.7609 62.8887 17.8065 62.8359 17.9697 62.3711C18.0697 62.0807 18.1785 61.8447 18.2057 61.8447C18.2329 61.8447 18.3505 62.0847 18.4505 62.3623C18.6105 62.8799 18.6233 62.8887 18.9681 62.8887H19.3041L19.6577 61.9199C19.8489 61.3935 19.9777 60.9303 19.9481 60.9031C19.8507 60.8623 19.7455 60.8437 19.6401 60.8487C19.3401 60.8487 19.2401 61.0031 19.1497 61.6023C19.0697 62.1471 18.9225 62.1199 18.7497 61.5223C18.5953 60.9623 18.5041 60.8503 18.1961 60.8503C17.8881 60.8503 17.7961 60.9591 17.6417 61.5495C17.5785 61.8127 17.4969 62.0295 17.4601 62.0295C17.3801 62.0295 17.1969 61.4487 17.1969 61.2031C17.1898 61.1114 17.1514 61.025 17.0881 60.9583C16.9713 60.8375 16.5081 60.8103 16.4353 60.9191Z" fill="#084981"/>
<path id="Vector_42" d="M20.1665 60.9007C20.1393 60.9279 20.2665 61.3911 20.4569 61.9175L20.8105 62.8887H21.1561C21.5097 62.8887 21.5097 62.8799 21.6729 62.3623C21.7641 62.0807 21.8729 61.8447 21.9185 61.8447C21.9641 61.8447 22.0633 62.0847 22.1545 62.3623C22.3265 62.8799 22.3265 62.8887 22.6809 62.8887H23.0345L23.3601 61.9631C23.5417 61.4455 23.7321 61.0463 23.7777 61.0551C23.8233 61.0639 24.0137 61.4911 24.1953 61.9903L24.5153 62.8887H24.8689C25.2233 62.8887 25.2233 62.8887 25.4049 62.3167C25.5049 62.0079 25.6041 61.7567 25.6313 61.7567C25.6585 61.7567 25.7681 62.0103 25.8673 62.3279C26.0313 62.8279 26.0761 62.8879 26.3121 62.9183C26.4577 62.9367 26.6121 62.9095 26.6665 62.8551C26.8025 62.7183 27.4473 61.0031 27.3929 60.9119C27.3289 60.8031 26.8481 60.8399 26.7481 60.9575C26.6722 61.1079 26.6232 61.2703 26.6033 61.4375C26.5393 61.7999 26.4033 62.1087 26.3489 62.0271C26.3305 61.9999 26.2401 61.7367 26.1401 61.4375C25.9585 60.8927 25.9585 60.8927 25.6041 60.8927H25.2505L25.0961 61.4279C25.0161 61.7279 24.9057 61.9815 24.8513 61.9999C24.7969 62.0183 24.7329 61.8455 24.7057 61.6183C24.6057 60.8983 24.5609 60.8655 23.7801 60.8655C23.3801 60.8655 23.0721 60.9103 23.0353 60.9647C22.9628 61.1336 22.911 61.3106 22.8809 61.4919C22.8265 61.7319 22.7449 61.9271 22.6905 61.9367C22.6361 61.9463 22.5361 61.7551 22.4633 61.5095C22.2825 60.9199 22.2185 60.8471 21.9281 60.8471C21.6017 60.8471 21.5105 60.9647 21.3681 61.5095C21.2409 62.0359 21.0953 62.0183 20.9681 61.4735C20.9337 61.2957 20.8801 61.1221 20.8081 60.9559C20.7289 60.8463 20.2665 60.7999 20.1665 60.9007Z" fill="#084981"/>
<path id="Vector_43" d="M28.9801 61.1095C28.7081 61.3543 28.6809 61.4295 28.6809 61.8903C28.6809 62.3511 28.7081 62.4255 28.9801 62.6711C29.2257 62.8887 29.3529 62.9343 29.7705 62.9343C30.0425 62.9343 30.3601 62.8887 30.4905 62.8255C30.7449 62.7159 31.0257 62.3535 30.9353 62.2655C30.8169 62.1567 30.2361 62.2111 30.0817 62.3567C29.7465 62.6647 29.3289 62.2567 29.4281 61.7303C29.5009 61.3759 29.7737 61.2503 30.0457 61.4303C30.3001 61.6031 30.7809 61.6207 30.8721 61.4671C30.9081 61.4119 30.8169 61.2583 30.6449 61.1039C30.3993 60.8855 30.2817 60.8495 29.8185 60.8495C29.3553 60.8495 29.2345 60.8799 28.9801 61.1095Z" fill="#084981"/>
<path id="Vector_44" d="M31.4855 61.0735C31.3583 61.1999 31.2767 61.3367 31.3039 61.3815C31.4039 61.5359 31.9303 61.5455 32.1839 61.3999C32.3927 61.2823 32.4471 61.2823 32.5743 61.3815C32.7831 61.5543 32.6831 61.6215 32.0143 61.7543C31.2247 61.9143 30.9431 62.3351 31.3607 62.7527C31.5607 62.9519 32.1607 62.9975 32.4591 62.8327C32.5951 62.7687 32.6775 62.7687 32.7679 62.8415C32.9039 62.9503 33.5119 62.9327 33.4759 62.8143C33.4575 62.7783 33.4487 62.4239 33.4487 62.0247C33.4487 61.3623 33.4215 61.2711 33.2215 61.0719C33.0215 60.8727 32.9223 60.8447 32.3591 60.8447C31.7959 60.8447 31.6855 60.8735 31.4855 61.0735ZM32.5479 62.3079C32.3079 62.4983 32.1207 62.5255 32.0391 62.3879C31.9031 62.1607 32.4663 61.8615 32.6751 62.0519C32.7295 62.0991 32.6839 62.1895 32.5479 62.3079Z" fill="#084981"/>
<path id="Vector_45" d="M34.3001 61.0192C33.6913 61.3912 33.6913 62.3896 34.2905 62.7528C34.6905 62.9976 35.4257 62.9976 35.7433 62.7432C36.2601 62.3432 36.2601 61.4368 35.7433 61.028C35.4345 60.7832 34.6897 60.7832 34.3001 61.0192ZM35.1801 61.3912C35.4345 61.5272 35.4257 62.2536 35.1713 62.3896C35.1174 62.4252 35.0543 62.4441 34.9897 62.4441C34.9251 62.4441 34.862 62.4252 34.8081 62.3896C34.5809 62.2624 34.5633 61.7088 34.7809 61.464C34.9537 61.2728 34.9537 61.2728 35.1801 61.3912Z" fill="#084981"/>
<path id="Vector_46" d="M37.9199 60.992C37.9015 61.0464 37.9015 61.4912 37.9111 61.9904L37.9383 62.8888H38.5735V60.9096L38.2647 60.9008C38.1031 60.892 37.9487 60.9368 37.9199 60.992Z" fill="#084981"/>
<path id="Vector_47" d="M39.1648 61.7991V62.8159C39.1648 62.8615 39.3192 62.8887 39.5104 62.8887H39.8456L39.8912 62.2895C39.9368 61.6903 40.1 61.3455 40.3 61.4271C40.46 61.4815 40.62 61.2999 40.62 61.0551C40.62 60.8823 40.5744 60.8463 40.3472 60.8463C40.2791 60.8431 40.2111 60.8553 40.1483 60.8821C40.0856 60.9088 40.0297 60.9494 39.9848 61.0007C39.8936 61.1551 39.8936 61.1551 39.8032 61.0007C39.7582 60.9493 39.7021 60.9088 39.6392 60.882C39.5764 60.8553 39.5082 60.8431 39.44 60.8463H39.1672L39.1648 61.7991Z" fill="#084981"/>
<path id="Vector_48" d="M42.0153 60.964C41.9977 61.028 41.9881 61.6544 41.9977 62.344L42.0249 63.6152H42.3449C42.6537 63.6152 42.6649 63.6056 42.6897 63.2336L42.7169 62.8616L43.1969 62.9072C43.6417 62.952 43.6873 62.9432 43.9169 62.6616C44.2617 62.2536 44.2705 61.5272 43.9257 61.128C43.8018 60.9793 43.6287 60.88 43.4378 60.8483C43.2469 60.8166 43.051 60.8545 42.8857 60.9552C42.7313 61.0464 42.6769 61.0464 42.6457 60.9552C42.5873 60.8104 42.0801 60.8104 42.0153 60.964ZM43.2681 61.4544C43.4857 61.6544 43.4769 62.1352 43.2497 62.344C43.0777 62.4984 43.0593 62.4984 42.8873 62.344C42.6689 62.1448 42.6473 61.784 42.8505 61.5C43.0137 61.264 43.0505 61.2552 43.2681 61.4544Z" fill="#084981"/>
<path id="Vector_49" d="M44.8473 61.04C44.7209 61.14 44.6073 61.276 44.6073 61.3488C44.6073 61.5216 45.1617 61.576 45.3977 61.4216C45.6337 61.2672 45.9241 61.2944 45.9241 61.4848C45.9241 61.576 45.7425 61.6576 45.3793 61.7392C45.0793 61.8024 44.7617 61.9208 44.6801 62.0024C44.5796 62.1075 44.5234 62.2473 44.5234 62.3928C44.5234 62.5382 44.5796 62.6781 44.6801 62.7832C44.9073 62.9824 45.5793 62.9824 45.8057 62.7832C45.9601 62.6472 45.9785 62.6472 46.0873 62.792C46.1673 62.9008 46.2961 62.9464 46.4689 62.9192L46.7225 62.892L46.7049 62.0752C46.6769 60.9952 46.5593 60.8496 45.6969 60.8496C45.2201 60.8464 45.0401 60.88 44.8473 61.04ZM45.9457 62.2472C45.8737 62.4288 45.4465 62.5376 45.3193 62.4112C45.1921 62.2848 45.3745 62.0568 45.6393 62.0112C45.9041 61.9656 46.0097 62.0624 45.9457 62.244V62.2472Z" fill="#084981"/>
<path id="Vector_50" d="M47.1257 60.9008C47.0985 60.9368 47.2057 61.1456 47.3801 61.3728C47.5545 61.6 47.7001 61.8176 47.7001 61.8528C47.7001 61.888 47.5553 62.1344 47.3801 62.38C47.2049 62.6256 47.0601 62.8424 47.0601 62.8792C47.0601 62.916 47.2329 62.9336 47.4417 62.9152C47.7681 62.8968 47.8593 62.8424 48.0129 62.5952C48.1129 62.4352 48.2217 62.3048 48.2585 62.2952C48.2953 62.2856 48.3945 62.4408 48.5033 62.6152C48.6633 62.9056 48.7217 62.9352 49.1025 62.9352C49.3297 62.9352 49.5113 62.908 49.5113 62.8712C49.4032 62.679 49.2785 62.4967 49.1385 62.3264L48.7785 61.84L49.1409 61.404C49.3409 61.164 49.4865 60.9408 49.4497 60.9048C49.4129 60.8688 49.2409 60.8504 49.0497 60.8504C48.7777 60.8504 48.6681 60.9048 48.5145 61.1224C48.4049 61.268 48.2873 61.3952 48.2601 61.3952C48.2329 61.3952 48.1417 61.268 48.0873 61.1224C47.9969 60.8776 47.9425 60.8504 47.5881 60.8504C47.3601 60.8464 47.1625 60.8736 47.1257 60.9008Z" fill="#084981"/>
<path id="Vector_51" d="M49.9127 60.964C49.8871 61.3055 49.881 61.6481 49.8943 61.9904L49.9215 62.8888H50.5615L50.6159 62.2808C50.6703 61.6544 50.8151 61.3456 51.0335 61.4272C51.1695 61.4816 51.4687 61.0824 51.3783 60.9368C51.2983 60.8104 50.8519 60.8192 50.7063 60.9552C50.6063 61.0464 50.5791 61.0464 50.5463 60.9552C50.4847 60.8104 49.9759 60.8104 49.9127 60.964Z" fill="#084981"/>
<path id="Vector_52" d="M51.6376 60.9823C51.6104 61.0367 51.6104 61.4911 51.6192 61.9903L51.6464 62.8887H52.3728V60.9007L52.028 60.8823C51.828 60.8799 51.6552 60.9191 51.6376 60.9823Z" fill="#084981"/>
<path id="Vector_53" d="M53.0177 61.128C52.6001 61.6176 52.7721 62.5256 53.3169 62.7432C53.5889 62.8616 53.7257 62.8528 54.0793 62.7072C54.2153 62.6528 54.2393 62.6712 54.2153 62.8432C54.1793 63.1432 53.9161 63.2792 53.6889 63.1336C53.5316 63.0639 53.3618 63.0269 53.1897 63.0248C52.9353 63.0248 52.8697 63.0616 52.8697 63.2064C52.8697 63.5064 53.2961 63.7056 53.9321 63.7056C54.4217 63.7056 54.5305 63.6696 54.7393 63.4656C54.9665 63.2256 54.9793 63.1936 54.9849 62.0584C54.9937 60.8968 54.9937 60.888 54.7849 60.8584C54.635 60.8448 54.4842 60.8725 54.3489 60.9384C54.1889 61.0288 54.1129 61.0288 54.0289 60.9472C53.9657 60.884 53.7657 60.8384 53.5841 60.8384C53.3257 60.8464 53.2001 60.9096 53.0177 61.128ZM54.0577 61.3912C54.2665 61.5088 54.2977 62.0448 54.0945 62.208C53.7313 62.5072 53.3497 61.9632 53.6313 61.536C53.8073 61.2728 53.8161 61.264 54.0609 61.3912H54.0577Z" fill="#084981"/>
<path id="Vector_54" d="M60.0615 61.0551C59.6439 61.4911 59.8799 61.9719 60.5695 62.0807C61.0055 62.1535 61.2775 62.3207 61.1871 62.4623C61.0967 62.6039 60.7423 62.5983 60.6055 62.4623C60.4511 62.3079 59.9791 62.2895 59.8615 62.4351C59.7887 62.5255 59.8255 62.5951 60.0063 62.7431C60.1871 62.8911 60.3791 62.9343 60.8327 62.9343C61.3591 62.9343 61.4503 62.9071 61.6863 62.6711C61.8311 62.5255 61.9495 62.3439 61.9495 62.2711C61.9495 61.9807 61.6223 61.7271 61.0871 61.6175C60.7967 61.5631 60.5335 61.4639 60.5151 61.4087C60.4607 61.2487 60.7695 61.1639 60.9599 61.2823C61.1503 61.4007 61.7311 61.4271 61.8127 61.3095C61.8407 61.2639 61.7495 61.1367 61.6223 61.0367C61.2591 60.7559 60.3335 60.7647 60.0615 61.0551Z" fill="#084981"/>
<path id="Vector_55" d="M13.1768 62.172C13.14 62.208 13.1128 62.3984 13.1128 62.5896V62.9432L13.5032 62.916C13.8848 62.8888 13.8848 62.8888 13.8848 62.5256C13.8848 62.1624 13.8752 62.1624 13.5648 62.1352C13.3856 62.1176 13.2128 62.1352 13.1768 62.172Z" fill="#084981"/>
<path id="Vector_56" d="M27.4008 62.2439C27.3702 62.3717 27.364 62.5042 27.3824 62.6343C27.4096 62.8743 27.4368 62.8887 27.8 62.8887C28.0088 62.8887 28.1816 62.8615 28.1816 62.8159V62.4351C28.1816 62.1263 28.1728 62.1151 27.8184 62.1151C27.5824 62.1175 27.428 62.1599 27.4008 62.2439Z" fill="#084981"/>
<path id="Vector_57" d="M36.524 62.1535C36.524 62.1807 36.5144 62.3623 36.5144 62.5439L36.5056 62.8887H37.3056V62.5255C37.3056 62.1623 37.3056 62.1623 36.9248 62.1351C36.7048 62.1175 36.5328 62.1263 36.524 62.1535Z" fill="#084981"/>
</g>
</svg>
