<svg width="24" height="25" viewBox="0 0 24 25" fill="none" xmlns="http://www.w3.org/2000/svg">
<g id="icon">
<path id="Vector" d="M12 11.8923C11.0375 11.8923 10.2135 11.5496 9.52813 10.8642C8.84271 10.1787 8.5 9.35479 8.5 8.39231C8.5 7.42981 8.84271 6.60586 9.52813 5.92046C10.2135 5.23504 11.0375 4.89233 12 4.89233C12.9625 4.89233 13.7864 5.23504 14.4718 5.92046C15.1572 6.60586 15.5 7.42981 15.5 8.39231C15.5 9.35479 15.1572 10.1787 14.4718 10.8642C13.7864 11.5496 12.9625 11.8923 12 11.8923ZM4.5 19.5076V17.2846C4.5 16.7949 4.63302 16.3413 4.89905 15.924C5.16507 15.5067 5.52051 15.1859 5.96537 14.9615C6.95384 14.4769 7.95096 14.1135 8.95672 13.8712C9.96249 13.6289 10.9769 13.5077 12 13.5077C13.023 13.5077 14.0375 13.6289 15.0432 13.8712C16.049 14.1135 17.0461 14.4769 18.0346 14.9615C18.4794 15.1859 18.8349 15.5067 19.1009 15.924C19.3669 16.3413 19.5 16.7949 19.5 17.2846V19.5076H4.5ZM5.99997 18.0077H18V17.2846C18 17.082 17.9413 16.8945 17.824 16.7221C17.7067 16.5497 17.5474 16.4089 17.3461 16.3C16.4846 15.8756 15.6061 15.5541 14.7107 15.3355C13.8152 15.117 12.9117 15.0077 12 15.0077C11.0883 15.0077 10.1847 15.117 9.28927 15.3355C8.39384 15.5541 7.51536 15.8756 6.65382 16.3C6.45254 16.4089 6.29325 16.5497 6.17595 16.7221C6.05863 16.8945 5.99997 17.082 5.99997 17.2846V18.0077ZM12 10.3923C12.55 10.3923 13.0208 10.1965 13.4125 9.80481C13.8041 9.41314 14 8.94231 14 8.39231C14 7.84231 13.8041 7.37148 13.4125 6.97981C13.0208 6.58814 12.55 6.39231 12 6.39231C11.45 6.39231 10.9791 6.58814 10.5875 6.97981C10.1958 7.37148 9.99997 7.84231 9.99997 8.39231C9.99997 8.94231 10.1958 9.41314 10.5875 9.80481C10.9791 10.1965 11.45 10.3923 12 10.3923Z" fill="#901D63"/>
</g>
</svg>
