<svg width="208" height="64" viewBox="0 0 208 64" fill="none" xmlns="http://www.w3.org/2000/svg">
<g id="logo">
<rect width="208" height="64" rx="12" fill="url(#paint0_radial_235_4847)"/>
<g id="Vector">
<path d="M126.229 38.3865C126.229 43.3458 123.699 47.9916 117.798 47.9916C115.576 47.9916 114.014 47.2771 112.956 46.2896L112.472 47.9916H109.598V23.4885H113.244V38.619C113.244 41.6843 114.03 45.0056 117.93 44.987C121.711 44.9702 122.542 41.5072 122.542 38.619C122.542 35.7307 121.71 32.2898 117.928 32.2746C117.134 32.283 116.348 32.4216 115.605 32.6841V29.8901C116.612 29.5119 117.682 29.3053 118.766 29.2801C123.935 29.2801 126.229 34.0945 126.229 38.3865ZM93.1887 47.9916H96.8363V23.4885H93.1887V47.9916ZM158.429 29.2869C157.346 29.3121 156.275 29.5187 155.269 29.8969V32.6908C156.012 32.4282 156.798 32.2896 157.592 32.2814C161.373 32.2965 162.206 35.7392 162.206 38.6257C162.206 41.5124 161.371 44.9719 157.584 44.987C153.685 45.0056 152.898 41.6843 152.898 38.619V23.4885H149.253V47.9932H152.127L152.609 46.2913C153.668 47.2788 155.231 47.9932 157.453 47.9932C163.349 47.9932 165.884 43.3458 165.884 38.3881C165.884 34.0945 163.589 29.2801 158.429 29.2801V29.2869ZM184.344 43.1587V36.7368C184.344 31.6815 180.887 29.2954 176.903 29.2954C172.695 29.2954 169.737 31.8736 169.737 31.8736L171.477 34.2193C171.871 33.9226 173.962 32.4465 176.703 32.4465C179.042 32.4465 180.938 33.4576 180.938 36.8463V40.8383C180.938 43.8226 177.722 45.1033 175.552 45.1033C173.624 45.1033 172.207 44.3753 172.207 42.766C172.207 40.0412 176.175 39.2274 178.569 39.342V36.7149C173.32 36.4605 168.613 38.5179 168.613 42.9716C168.613 46.0689 171.162 47.9865 174.978 47.9865C177.838 47.9865 180.31 46.9468 181.517 45.8111C182.165 47.3715 183.921 47.9865 185.286 47.9865L186 45.4724C184.853 45.2365 184.349 44.7191 184.349 43.152L184.344 43.1587ZM144.688 43.1587V36.7368C144.688 31.6815 141.232 29.2954 137.249 29.2954C133.04 29.2954 130.082 31.8736 130.082 31.8736L131.825 34.2193C132.216 33.9226 134.307 32.4465 137.049 32.4465C139.388 32.4465 141.286 33.4576 141.286 36.8463V40.8383C141.286 43.8226 138.069 45.1033 135.898 45.1033C133.969 45.1033 132.552 44.3753 132.552 42.766C132.552 40.0412 136.52 39.2274 138.914 39.342V36.7149C133.665 36.4605 128.958 38.5179 128.958 42.9716C128.958 46.0689 131.507 47.9865 135.324 47.9865C138.183 47.9865 140.655 46.9468 141.863 45.8111C142.51 47.3715 144.267 47.9865 145.63 47.9865L146.346 45.4724C145.198 45.2365 144.694 44.7191 144.694 43.152L144.688 43.1587ZM88.6261 43.1587V36.7368C88.6261 31.6815 85.1698 29.2954 81.1863 29.2954C76.9776 29.2954 74.0199 31.8736 74.0199 31.8736L75.7678 34.2193C76.1591 33.9226 78.2519 32.4465 80.9915 32.4465C83.3326 32.4465 85.2288 33.4576 85.2288 36.8463V40.8383C85.2288 43.8226 82.0119 45.1033 79.8406 45.1033C77.9141 45.1033 76.4968 44.3753 76.4968 42.766C76.4968 40.0412 80.4625 39.2274 82.859 39.342V36.7149C77.6084 36.4671 72.9083 38.5246 72.9083 42.9784C72.9083 46.0756 75.4568 47.9932 79.2741 47.9932C82.1334 47.9932 84.6033 46.9535 85.8114 45.8177C86.4602 47.3782 88.2151 47.9932 89.5805 47.9932L90.2953 45.4791C89.1355 45.2365 88.635 44.7191 88.635 43.152L88.6261 43.1587ZM101.388 48H105.034V29.8497H101.388V48ZM101.388 26.9362H105.034V23.4885H101.388V26.9362Z" fill="#901D63"/>
<path d="M55.8322 46.1752C55.6536 46.4801 55.2228 46.6184 54.8404 46.7211L50.4816 47.8822C50.0992 47.9833 49.622 48.0659 49.3021 47.894C48.9821 47.7221 48.8231 47.2957 48.7212 46.9368C42.3912 24.6733 41.5173 19.874 38.9707 19.874C36.424 19.874 35.5572 24.6733 29.2201 46.9368C29.1182 47.2957 28.9556 47.7221 28.6392 47.894C28.3229 48.0659 27.8404 47.9833 27.4579 47.8822L23.0991 46.7211C22.7167 46.6184 22.2878 46.4801 22.1091 46.1752C21.9303 45.8701 22.009 45.4236 22.1091 45.0748C28.5874 22.4051 32.2063 16 38.9707 16C45.7349 16 49.3611 22.4034 55.8305 45.0748C55.9305 45.4236 56.0057 45.8803 55.8322 46.1752Z" fill="#901D63"/>
<path d="M59.705 31.855C59.701 32.0731 59.6481 32.288 59.5495 32.4852L59.3707 32.9521C59.2923 33.228 59.1148 33.4698 58.8686 33.6362C58.5814 33.75 58.2615 33.7672 57.9625 33.6851C52.2826 32.5032 46.345 33.186 41.1328 35.6205C35.9207 38.055 31.7468 42.095 29.3022 47.0715C29.1235 47.4423 28.8411 47.9932 28.2049 47.9932C27.9502 47.9923 27.6971 47.9548 27.4543 47.882L23.0955 46.721H23.0848C22.5808 46.5863 22 46.4026 22 45.7605C22.0186 45.4827 22.099 45.2118 22.2359 44.9652C25.3329 38.706 30.831 33.7863 37.6222 31.1978C44.4135 28.6092 51.9929 28.5442 58.8328 31.0158C59.1723 31.1338 59.705 31.3225 59.705 31.855Z" fill="#901D63"/>
</g>
</g>
<defs>
<radialGradient id="paint0_radial_235_4847" cx="0" cy="0" r="1" gradientUnits="userSpaceOnUse" gradientTransform="translate(104) rotate(90) scale(64 208)">
<stop stop-color="white"/>
<stop offset="1" stop-color="#F6E9EE"/>
</radialGradient>
</defs>
</svg>
