<svg width="208" height="64" viewBox="0 0 208 64" fill="none" xmlns="http://www.w3.org/2000/svg">
<g id="logo">
<rect width="208" height="64" rx="12" fill="url(#paint0_radial_235_4845)"/>
<g id="Vector">
<path d="M69.0914 24.6486L58.2433 24.1406L57.4497 27.3335C58.6696 27.604 60.1978 26.9443 64.3298 27.2609C67.2877 27.5314 67.9764 28.8574 67.9764 34.445C68.0093 36.3003 67.9216 38.1558 67.7141 39.9996C65.9812 40.5242 64.1781 40.7756 62.3687 40.7451C60.4011 40.7451 59.5682 40.3228 59.5682 39.4718L59.7256 34.0426L55.5477 33.7259L55.0689 37.4466C54.5377 41.7082 56.4462 43.1397 61.844 43.1397C64.4557 43.1791 67.0584 42.8211 69.5636 42.0776C71.787 41.2794 72.9545 37.2619 72.9545 33.218C72.9545 27.5776 71.4197 25.1829 69.0914 24.642" fill="#901D63"/>
<path d="M48.1364 37.6049L38.5607 36.8067C38.1675 36.8059 37.7883 36.6595 37.4956 36.3955C37.2029 36.1314 37.017 35.7682 36.9735 35.3752C36.9735 28.2439 38.0819 26.377 41.0989 26.377H45.0341L45.6113 32.0173L49.999 31.5423V26.5353C49.999 24.9982 48.8906 23.5601 47.3756 23.7184L37.1834 24.8333C33.8056 25.2093 31.838 29.2004 31.838 35.3224C31.838 37.4994 33.6417 39.1486 36.1274 39.2014L45.7031 39.4718C45.7133 41.1108 45.5904 42.7479 45.3358 44.3668C42.2961 45.2616 39.1361 45.6734 35.97 45.5872C29.4572 45.5872 26.7091 43.9907 26.7091 40.2173C26.7091 37.7171 27.2404 32.1822 27.6077 27.8151H23.6725C22.8985 31.4368 22 36.2394 22 39.6302C22 45.5674 26.0205 47.9885 35.97 47.9885C39.5492 48.032 43.1201 47.6309 46.6016 46.7944C49.3038 46.049 50.6221 44.0237 50.6221 40.5142C50.6544 40.1596 50.615 39.8021 50.5063 39.4632C50.3976 39.1244 50.2218 38.8111 49.9895 38.5424C49.7573 38.2737 49.4734 38.055 49.1549 37.8996C48.8364 37.7441 48.49 37.6551 48.1364 37.6379" fill="#901D63"/>
<path d="M150.832 39.1486V22.3858L146.34 22.6563L146.995 41.7874C150.117 41.7346 150.8 41.1277 150.8 39.1486" fill="#901D63"/>
<path d="M179.409 16H174.116V20.255H179.409V16Z" fill="#901D63"/>
<path d="M181.468 25.7371L171.997 24.3649C171.574 24.2819 171.138 24.287 170.717 24.3799C170.295 24.4727 169.897 24.6513 169.547 24.9047C169.197 25.158 168.902 25.4808 168.68 25.8531C168.459 26.2255 168.315 26.6395 168.259 27.0696L167.524 33.7259C167.255 36.1206 168.836 38.192 171.755 38.192H181.14C181.096 39.5471 180.964 40.8979 180.746 42.236C177.481 42.8085 174.17 43.0758 170.856 43.0342C163.497 43.0342 161.543 41.1738 161.543 37.341V21.8581L157.043 22.1219L157.109 38.7792C157.109 41.4179 157.057 43.463 156.742 44.6306C155.259 45.2178 152.669 45.5938 149.652 45.5938C147.756 45.6353 145.86 45.4917 143.992 45.165L143.723 47.4013C145.701 47.8544 147.729 48.0517 149.757 47.9885C152.931 47.9885 155.948 47.6652 157.693 47.0781C158.617 46.8432 159.447 46.3279 160.07 45.6021C160.693 44.8762 161.079 43.9751 161.175 43.021C162.658 44.6702 165.576 45.4289 170.764 45.4289C174.465 45.4481 178.162 45.1813 181.822 44.6306C184.833 44.1029 186 41.8138 186 36.1734C186 29.6754 184.465 26.1659 181.501 25.7371M172.476 35.2102L172.948 27.0696H176.228C180.248 27.0696 181.101 28.1383 181.147 36.0348L173.42 35.7974C173.106 35.7974 172.469 35.639 172.469 35.2102" fill="#901D63"/>
<path d="M138.351 37.6049L128.769 36.8067C128.376 36.8059 127.997 36.6595 127.704 36.3955C127.411 36.1314 127.225 35.7682 127.182 35.3752C127.182 28.2439 128.297 26.377 131.314 26.377H135.249L135.826 32.0173L140.22 31.5423V26.5353C140.22 24.9982 139.112 23.5601 137.63 23.7184L127.398 24.8333C124.007 25.2093 122.053 29.2004 122.053 35.3224C122.053 37.4994 123.85 39.1486 126.336 39.2014L135.754 39.4718C135.764 41.1108 135.641 42.7479 135.387 44.3668C133.216 45.1122 130.304 45.5872 126.204 45.5872C119.698 45.5872 116.944 43.9907 116.944 40.2173C116.944 37.7171 117.475 32.1822 117.849 27.8151H113.913C113.12 31.4368 112.215 36.2262 112.215 39.6302C112.215 45.5674 116.242 47.9885 126.185 47.9885C129.764 48.0314 133.335 47.6304 136.816 46.7944C139.512 46.049 140.837 44.0237 140.837 40.5142C140.869 40.1596 140.83 39.8021 140.721 39.4632C140.612 39.1244 140.437 38.8111 140.204 38.5424C139.972 38.2737 139.688 38.055 139.37 37.8996C139.051 37.7441 138.705 37.6551 138.351 37.6379" fill="#901D63"/>
<path d="M102.108 25.7371C102.37 30.157 102.528 34.788 102.528 37.1299C100.456 37.4139 98.3682 37.5703 96.2771 37.5983C96.146 28.897 94.6178 26.1461 91.791 25.7239L82.3399 24.3649C81.9142 24.2738 81.4742 24.2731 81.0481 24.3628C80.6221 24.4525 80.2193 24.6306 79.8656 24.8858C79.5119 25.141 79.215 25.4676 78.9939 25.8448C78.7729 26.222 78.6325 26.6414 78.5818 27.0762L77.821 35.3224C77.6111 37.7171 79.1327 39.7885 82.0513 39.7885H91.4565C91.404 41.8533 91.227 43.496 90.8006 44.4723C89.2134 45.0594 86.5703 45.3233 84.0321 45.3233C81.7835 45.3675 79.5351 45.2263 77.3094 44.9011L77.0471 47.1309C79.3818 47.5878 81.7594 47.7847 84.137 47.718C86.7605 47.718 89.8496 47.4013 91.5942 46.7614C94.526 45.6795 96.0607 43.4102 96.2771 39.7621C98.9465 39.7159 101.373 39.6302 103.492 39.5246C105.61 39.4191 107.427 37.9809 107.427 35.0519C107.427 33.7325 107.217 29.9459 106.771 25.4732L102.108 25.7371ZM82.7925 36.8067L83.2713 27.0696H86.5506C90.617 27.0696 91.4237 27.8745 91.4696 37.6247C88.3936 37.6247 86.5965 37.5587 83.7435 37.4136C83.2188 37.4136 82.7925 37.2025 82.7925 36.7539" fill="#901D63"/>
<path d="M108.404 18.2891H94.2767V21.2182H108.404V18.2891Z" fill="#901D63"/>
</g>
</g>
<defs>
<radialGradient id="paint0_radial_235_4845" cx="0" cy="0" r="1" gradientUnits="userSpaceOnUse" gradientTransform="translate(104) rotate(90) scale(64 208)">
<stop stop-color="white"/>
<stop offset="1" stop-color="#F6E9EE"/>
</radialGradient>
</defs>
</svg>
